# xmcd
#
# Track frame offsets:
# 150
# 10132
# 21751
# 32756
# 45638
# 55953
# 70832
# 79412
# 91217
# 100364
# 109820
# 119920
#
# Disc length: 1740 seconds
#
#
# Revision: 0
# Processed by: cddbd v1.5.2PL0 Copyright (c) Steve Scherf et al.
# Submitted via: FreeRIP 2.96 
#
DISCID=a006ca0c
DTITLE=willie nelson - americana
DYEAR=2002
DGENRE=Country
TTITLE0=I didnt sleep a wink
TTITLE1=touch me
TTITLE2=I feel sorry for him
TTITLE3=I just dont understand
TTITLE4=pride wins again
TTITLE5=and so will you my love
TTITLE6=slow down old west
TTITLE7=I will stay around
TTITLE8=right from wrong
TTITLE9=one step beyond
TTITLE10=broken promises
TTITLE11=blame it on the times
EXTD=
EXTT0=
EXTT1=
EXTT2=
EXTT3=
EXTT4=
EXTT5=
EXTT6=
EXTT7=
EXTT8=
EXTT9=
EXTT10=
EXTT11=
PLAYORDER=
